<?xml version="1.0" standalone="no"?>
<!DOCTYPE svg PUBLIC "-//W3C//DTD SVG 20010904//EN"
 "http://www.w3.org/TR/2001/REC-SVG-20010904/DTD/svg10.dtd">
<svg version="1.0" xmlns="http://www.w3.org/2000/svg"
 width="1720.000000pt" height="1720.000000pt" viewBox="0 0 1720.000000 1720.000000"
 preserveAspectRatio="xMidYMid meet">
<metadata>
Created by potrace 1.11, written by Peter Selinger 2001-2013
</metadata>
<g transform="translate(0.000000,1720.000000) scale(0.100000,-0.100000)"
fill="#000000" stroke="none">
<path d="M189 17157 c-56 -21 -97 -55 -122 -100 l-22 -42 0 -2140 0 -2140 28
-48 c19 -32 44 -56 76 -75 27 -15 549 -214 1160 -442 611 -228 1110 -418 1111
-421 0 -3 -512 -197 -1137 -430 -1089 -406 -1139 -426 -1179 -465 -25 -25 -47
-58 -53 -80 -15 -55 -15 -4243 0 -4298 6 -22 28 -56 52 -80 40 -39 87 -58
1179 -466 626 -234 1137 -428 1138 -431 0 -3 -503 -194 -1118 -423 -614 -230
-1136 -429 -1159 -442 -26 -15 -53 -42 -70 -72 l-28 -47 0 -2140 0 -2140 25
-45 c16 -28 43 -55 74 -74 97 -60 -282 -195 4286 1520 2269 851 4139 1548
4155 1548 17 0 1886 -697 4155 -1548 4568 -1715 4189 -1580 4286 -1520 31 19
58 46 74 74 l25 45 0 2140 0 2140 -28 47 c-17 30 -44 57 -70 72 -23 13 -545
212 -1159 442 -615 229 -1118 420 -1118 423 1 3 512 197 1138 431 1092 408
1139 427 1179 466 24 24 46 58 52 80 15 55 15 4243 0 4298 -6 22 -28 55 -53
80 -40 39 -90 59 -1179 465 -625 233 -1137 427 -1137 430 1 3 500 193 1111
421 611 228 1133 427 1160 442 32 19 57 43 76 75 l28 48 0 2140 0 2140 -25 45
c-16 28 -43 55 -73 74 -95 59 275 190 -4289 -1522 -2276 -854 -4145 -1552
-4153 -1552 -8 0 -1877 698 -4153 1551 -2275 853 -4153 1553 -4172 1555 -19 2
-51 -2 -71 -9z m4050 -1920 c2633 -988 3738 -1406 3725 -1411 -134 -53 -4927
-1846 -4937 -1846 -6 -1 -587 214 -1289 477 l-1278 478 0 1858 c0 1765 1 1858
18 1853 9 -3 1702 -638 3761 -1409z m10999 -4124 l1084 -406 -254 -94 c-139
-52 -269 -101 -288 -109 -19 -7 -1020 -383 -2225 -834 l-2190 -820 -1088 407
c-768 288 -1082 410 -1070 416 52 23 4920 1845 4932 1846 8 1 502 -182 1099
-406z m-5555 -2081 l1087 -408 -1089 -409 c-777 -291 -1096 -406 -1112 -402
-13 4 -507 187 -1097 409 l-1072 402 1082 407 c596 224 1090 407 1098 408 8 0
504 -183 1103 -407z m-2789 -1041 c760 -285 1083 -410 1070 -415 -133 -53
-4927 -1846 -4937 -1846 -16 -1 -2167 803 -2167 810 0 3 1113 422 2473 932
1359 510 2472 927 2472 927 0 1 490 -183 1089 -408z m8536 -3200 l1275 -478 3
-1856 c1 -1022 0 -1857 -3 -1857 -4 0 -7349 2752 -7499 2809 -13 5 721 285
2450 933 1358 510 2476 927 2484 927 8 0 589 -215 1290 -478z"/>
</g>
</svg>
